<mxfile host="app.diagrams.net" agent="Mozilla/5.0 (Macintosh; Intel Mac OS X 10_15_7) AppleWebKit/537.36 (KHTML, like Gecko) Chrome/128.0.0.0 Safari/537.36" version="24.7.10">
  <diagram name="Seite-1" id="jR0vT6g9yJPxIXAJ5M1i">
    <mxGraphModel dx="988" dy="545" grid="1" gridSize="10" guides="1" tooltips="1" connect="1" arrows="1" fold="1" page="1" pageScale="1" pageWidth="827" pageHeight="1169" math="0" shadow="0">
      <root>
        <mxCell id="0" />
        <mxCell id="1" parent="0" />
        <mxCell id="nKZgPrIdQHSc6nTD6ok2-1" value="PostgreSQL" style="rounded=0;whiteSpace=wrap;html=1;verticalAlign=top;" parent="1" vertex="1">
          <mxGeometry x="280" y="240" width="90" height="80" as="geometry" />
        </mxCell>
        <mxCell id="nKZgPrIdQHSc6nTD6ok2-2" value="" style="shape=image;verticalLabelPosition=bottom;labelBackgroundColor=default;verticalAlign=top;aspect=fixed;imageAspect=0;image=data:image/png,iVBORw0KGgoAAAANSUhEUgAAAN0AAADkCAMAAAArb9FNAAAAulBMVEX///8zZ5EAAAAtZI8nYY0fXYsmYI0TWYgrY44dXIoRWIj5+fn29vb2+Prz8/PX19fKyso7OzttbW3CwsLo6Oi3xdNfX1+urq6Xl5eoqKi+vr7w8PDm5ubg5ux/f3/T09OMjIxERERliKeVq8AxMTGjtsjM1uDX3+d9mbOwwM9DcZhJSUmJiYmpqalWVlZPeZ2MpLsTExN1dXVrjKohISHDz9p6lrEoKChdXV1Yf6FSUlIATIERERE1NTV/bQhJAAAZyElEQVR4nNVdaUPiPBAGe9Eigij3IYqA4AEquOq7+///1kubmRxt0iZBV/b55EFLJpk7k0mpdHSoDhud7kOzfX27/X1ycvJ7e3vffpn0+leDnx7ZYahePY7vT3Jw/vJY/+lBqjCoX/R73clk0u32Ov2Lq+EZ98/LzvhXHmEM992rLx/aWb3fGzc/z2+3zzGznN+3x5PeRV2PW84a3eatbKTb+5duf3jWf9EjjKLZ/zLCqo3uk/qLbpvdi8u8xxsPmotiSGDjC0ird891vut+ciFdxkbzOygDdM9kX6mN4eTZ4MueXzriIp51rQb9633c7VzUh5dn1f1LqoNhvdHvPbRlrP0ytKatf20+sufxRRWnxnzZti+9Rg6XD/uTjEpt29HX2ZrTRvDU2TPpQELbdXv80O31et3uw7h9/Vv852e3caozrno3NelNczvYz7Dk+8NeRV4ip59eDvfsMmn+kRN4/SD+fjvu1KuZL7lsPI4TqX4eG6mI086n8PauGW2XIgPcdxtq+R1cPb7kK55mP1f66z0LCz3o8az1bDI5gjJoXmQnXTLER4WUtS/Mh66HBm+mXnSfOuP4+tzEal5mjfLE0jesDhbz1nI5i7Fs7RajmuxTgt7SY4Ar9sC7OcsMe9zcGMpDgtFudrcuh1HoeZ7v+r7r+p4XBlFlfTebZ2gcPpl9W4d++tPSYT3tvBNmkXJ0tbaH8tna23+R7zplCRzXD6PyXSv18BVzhJ4Kh8ZELisvtdGeW2bTzWYznc6Wu7mcXRISOvfP6blZtDavq7IXRUEQBX55dXM3242yj55tIldGHMD1ovVMZHc25G2BHEyoLkkRtpve+EEQejGr7OH7/p5dAm/9Nm1JhpjGYrreP+tWuEVxHNfdv2J1l3n+7C2SLh590o8+WvwDAyYMuexGp0FQJovpKvIU7FLxvSBYb/JIHE2dwFeN13G9oLyZp574CPPI2z/leRt+ndjy5ZgGKnOcd1ObrdRj44bov84WsnfOPyI//+k9u4Xhm0hgy8tjz+SZ6I6jj6lCpZLHj/xiHlFtU0gaouIH/lsrZbcX60DvcTd0pvyztbeg8JFowwT/9LyAvDP49y370zQomsIUhV7Ay3ytQIJSow3eeP7ehZWiJ3xvyT7fVqvDGCCbW/qHeaWQp7LwPrjxmc3NfjVeOfpqH17hE+GaPUBdW1liAiWT8semkDdkA1zTF95F5o9XojvOzGyK3+BEywwFJ9mgaJjSqbV18cxJvmxFZ35tsfDlmD9nbFA7DakNX7PkZUIp4MtHHFzZkKsIPBS6kVMoNcp3rJjyHVWKyXPLlDuRvPMUcX3y53dKnIE6YIhQr490Na0MTrSh46qtimfZCak5QdlLhQypJV1ZDc6bwuMD7wDi9vBXTFmsNZgoor4Lak5BcfbI3zrw64cVWzqoUSxXnn8VG2/pQ0OAmW5Bu5ddOrR0UxuFsv8KnPC1tcxxL2PceWNC3ilQN2HEdQQnbWGhyvfwUNm92WnL9Otu2OqZMGcdyGPx1y9B09gJHTUGLRs7KYG7oqZPS/ZQtYwJdTSYvRKWbmbJl/D2wRcRtzftZbQvVZ0JD0EwqoSaZ6TuhXfBqnbEVZCRPr5A6ACOj5J8psHsTrkqLB76JeS3Hvllaic1qFJaBaGZERh5Iw1d4ILXMhRYsy/YOksH6g1W/ks0CoXjI3O2NMiLwMnZ8mqkybsprcOsweZrqduzG6qWTfHAKrB4D7zWJD9D1Le2Upj43jM7Y5L3ZuqXa1jRkBB0QSi64jRmVZu/JQiAJ+6snJxcuKiuahrhHtHbAy4iII71PXnFzM4HgwmufZk14OCh17IrnHl/xqvJh/jHe17D2DEmZgA2X790e0Q7IO+t6PUoIMTZbDNCrw6RmwgszVdaA/71aBeKPog81KRuc533qXdWGhPNwdJO3xaCOnnzoskPyOeIPf9dQg/6/BDWwujRzkHVgI+iV8SbEflYl64YMQ7jQ8bnkodH36FTCNCJrRXwfkCsY49S98S0Z6lkJXbuHXl4+i06hcApaTF/NOCp22uDZy4+GFmpBWRMq2FrgvJmPncFhLoO9S3JD5cHKJWQfO/i+xizzHzIee63AHWPhKiz0iWvMq1sOcY+38mYXNLmI2/xAoEzT0WDYOVIoYPwbRqTIASPITcvAlqF6kzicV6TJ29sBhgQW/t1MbkCPizeTY43DW4Fpa7DnBbL6YdvtQydDL5nWizfYO8ekLoub+5svhR9u28ID1KIaoWSB4aDeGLPSN0D+atN6OnOvt8eEODi7ZR2C1VPG/3MBy5CqNqIDsZUXx63Sr4KFk+Z6kY+IsWOn+hwkoxRzWaEwC92ptIMqJ1nKh5zweYTsXvBbN/jAWoPrN0XJ1SkqJTyVwHIh4zmBAWwY81dyAx5evrL4EE6/VXxZR6JcyHl10tRZ7F2KOrfrjFjOB/51gfS0Q1C3cXhawfT+S0ZFQLH9cIwCqIgCML/RrnfBq4KuJlDpM5e7kLi3S4ELV1J6qziyit5iZI+3NC7mbbmo0GtVjsbLeajfJNH/svymS+8zrSgDqaL8UpcGvU2281He8xbm3Vgr24cz51KC5gUWhN1wCf1nccH2rtI+Do3dO52YunfYFa2NBZeWSh24yG3Py7oAEJcXNA4QeUZw3wYmNCJ/bC4Nk061cvQhj+jmexdBAupuwIqE4qmYv9L8DPNB+FAcPfhVIIP5VTXdLYXUy928yoj51LqAkFlxpqyd1iMgDmVcvQqlxCAzt63QJyTWwcv50xIEkDsGu/f9fn4TmUlc6gDVv8oqkE13LQM+ffVFrtWUv49XwxyqENr2GQBeYOPzc3Tma5COM72A2rtFmxrvmrEFsGOPjjfrOIScD8u5/XQ4EmpQ8fiGSME6rWQYSyNtbcnkbXF7MZPatL3Ru+DDjM/3SOCblOXWuXQrcSl7TA5IFpSZ8UTdoCScqMqtevxCIyVprcriVhs3IAz4U64wt1TA080QL68CRw/WG9ms+kNmRwwr9JlgGjlgikVNA6k8sg8myxSV5uV0XhXvCDYL6C7txMwVP2MIApQ6cN3whmYz1EyZbBRILPmaJy6TKlgcR+UBBg7miFXz8yXGXuvu8HedWrdxTwF/9fePUN2j2uemGtAlAL/swgM7u55TfLCuNTCJHDU8WXGqEqTP6O0a0s1sNg+jOPek4wNV1XG5chGhDjYbSXWAfaA3kxNQohWbufz0xlwCr3lgbDoO+mU/RxWh5wUCaF5la0CzAlslMNu6wW/kMbJaKTuVRy5xxfg0+JszXfSgNjh9g+WyRdg7kEyT5gxArGD4mgwCZYbCcAO6QSxw8qjS7UQh1u4M0yA7Jisj/cRz9/oNeS/ThaIIv9f86slKk3jCA8UQEbZ+qwAce8AeTD/eoIHHgLs1Tmhuy5HIDHA8TI3EzRAVRA73EIHPjU158B0Z5lZ8d6QOI8OSu7ZZ+CTd7JokwlZqDZ34GReCGKHShOONeXusMhGAlmo7Jq77mwxWkzdmBuBoTQzihnqOJBRSgxCBWYzVQIHShMK/ky3qZDbpX5fGIQQ1MKn9N6JnJmlDuMtiUFAG/lbFDtUoaQIznSvA01oviXBUenFIK4yzYbfJnkIrA7oSHbA7pRXoaa+GI3v8gFpVr2UrtqoYUSSlV80jF3eyUyw5X0xw51zLFVZ5X8sk1vKA44061oA+0kMAsgqlrRzoW/zALWCpqzAhZPmBZUAA5J1LcBJkLwGih0g+uHPkhyiVlCiCjxkzOnqKU3Y/c5aNZik7D/Qe+ik7EGJqhWymobeCssa5X4MVaueOQUDUs3MRaCKzNFD++SjVQJQKw0VT+cBZaSAOiqeWnyPc5FhCFjUrPgCY0Kub1viseWXU5+yGJrU5UUu6k9nYlSgLuOq4APAmBOBOuKtwGF0syBIk7q8qFMCULGZQt9IQR0GIZ8pR4UnuSR/NBe61IEXqLmHiYFo+u+qnBGEdsCYvwXisCKHyKKm1gZo6kz8ft0oQVFXp9AqaJZ6MsbEIAgMvBF1FU3q8jJ1EoDFS3tOCosQwlKfyxgT+fVFj8kEaFpzzC3r2htFPStwbLoUEepDhzKNWULvDP5stL+v6Weq7bDitfJaZIwmRW2DvnU3a8oTQLpd5SLkDQPeXLTeodKHUnyeJMdTtbS+1IvGFBUh4iTT1ArsOck+ZF2EHOTFd8JoDanDcE2sz5JyCnphsETXaeKwOAfqqUzOJKhj88OowyGLegWlXFANOBHtTPCDIPH6H/KLiSOtjkmk1OlzfSTb/+d3etkQBP4TjvMChENqJoKn0GJZ6sy0CmNCseQNKOEVH0o+GDtZc6oz3pGuGlAXqlNwApTevRJYrygYBdwC4l6Diwz9xaS9Nbe84BlYPKXXbvk5BtSPwiPZyUR3oqEwdgmI4P0ivyhr6LJQhtEpRJqf44BHEISvI+LL6Rq0+6BTelLqQPBIBGvgaoKYF/r+jubneEpAF/Js6GUTueRDkHI4kfetA8GDA5TaFo8mGIs6H0EoYVJ2QPf9uHcju9IBYuwzUeuUGMTijQ0HoeuI4eeMjvehc8wtXsY1AhcT/RRVxy1SOQapI+0YD12VosWWu1AFoAfT2J8qqQwGJnYhQk33VaFo8DGeds4WRl2Y6woz2kAHuHjsDHs6SYVmYysIlgTk/4/p2SqgjrB94cZYYFU8TReP2jx00EDOkVEbaj8FQDbToaRKV7eBUBc5Yjgo0z2YENTmDmcPXwSKAfIsuCOZ04Wxy5Ov6zHlbUbxH1Ol8ApA1SZyIq4moQ51FTYdyel7W+edMV2boBkiwHF08/pPL3W0SVw7dMLAko/VxAmHtLULg1BnFSw1bAFZnFmAJ5EVBbnDAB6bheV2HBf6kOgmr+AL8lkOhd/iqBCaEpBsQWfi0kFNXzuPOHTGLvm3FQHnMn/cmBqwObKAp2NIewy6tVdmM3tZYMkJTgU/VFMB+BpLjVNglLBB4LqTLg8+Jwm4dNAK+DOXOLQJZg0fYFlyzTS6w5rlKikgEUmtEXf6AZcRl67o0gR6WrRwvNmR534G3m93ygtzKclXcKUh6KaA1EmSRSKGgjuj1/EMHb8cO02L4CwL9/G0cuyPsbIeLPfBpSvu9r3ldY/uhgb5dE5flgA2sW1P/dKqrJXDndP0YOnaBf4zw4R3VzRZE2NjZbYCVZtJ5XDqK2gkxOQAW7Ohm6JxVUldZE0tVIoGj+bgkCNsMD4vYvt68CfYsaNlYXkgH4XqB02XN8CztvLRY1Ru2VIoAa21Bcac+VjzfqW/dNxJ5mQ8eqyESkMxfNxoPORIM20sBPplTfvHwvUMxT3MuamA5pOaasCDTI28cyOY+8PO5wVCN+lRhDYQ3CtJo1opBNbUNOi0dlnGm+hqGCQRJeCLWfdOWXgnDDfddl2JMc+ausUdkIkt1ZzsYqOxOrBfKL94tQh9T2xTq3sJw5WgNTVz0vTkxyhzEg0l5tDuJKyX8V4CsBMotu9+0CSOP5hX0s+LY4KgNEr3q8UA5uA2CbT16F6CkU3xZgtt4lBrkrXW3i6hBfqDVCPmCPyUw1txYQqltIGDTtQaPJa0URfCIN0p5xjnhufBohPUBqCKZYD15HCphbgvcnp5mXdJDPE1YbtEW1xcdiqi5TH1iGkRq74tKXhTcaC9lCEfNLpNIPipp8ofCWeE9D1fl/UT544DgTa16h+RQSQYPdwWea8Or/rdzKWAY/kKwlOQX9KPWnxGXnxjRHJ3CnLTF/WIC3nN/35SALmFf+IVUVF3Mg7Bhn/LaHm39iNgpq9gzLJoFi6KiFP4nsLhPP1epv6N7GVkiv47vGdAAo/xRzFxiuQt+RfUP+i69pxayWDUmu9mGteTFMAJ1jOUJvXlc9zNbO+ywUAMC3pFj6sqK9mbxBWcFl/FkYfwhjv11pBczXeO97TRf8pygJCpANdUK6RmvXMb9+q0Yk2nn7wK3B0WZJSd8ScxALf3zUlHvBQQkoAT2Sgg3gUNpWMUaN/j2Bk4l1T7AN6sladoDgohWG0RDYFydQcoCuqIYUa/3VFEXK+W/magbLIgh7ChlcKz8L/CxaPzihaWMEx7LCmvsCOuwilkndv4MKyV/g+cHBhc0eLR3v3V9G2OVAQX1A7bZcYoc9SWr9GbBn2dHOrQmsBvBS0raWySvrIUd7EHqyCiCs/0gF8MerZ3FniVsuvPxA4uDPSCvHYedRNh8XJ74XqYBSilXT0MKpNLSiq0/6VFMITO+BQW3o9uZgthBWuj3ext9R9yEah9RQoXo97i+aaduDMGFvdkqiTp4GBliYVVAMbknHHHD4Pyx9vdZrO5e/1YxW0l/IBd1XKfYxFKNL8Ci6d2WCo0nZO6ApVpY7x2AzOD5l1OsP1B2hl3KsldfJUkneMELELCW/xUphe1H/x6p5hwx0FG76WI+1PNPAqlYub9VTW2QJ2Ia/CCY1FvC6WsvYI62uMl7bJTW7BkOhJyB+ab54XnxJxgxRl7el+V2mvCxcNeNFJFTg1dXSDthe028afszQtQAflnHhw/+OAdGXora14JBEgebrXL9k0DdP04K97s8V5KjX8KSjTtqcvmRCt+GH0Il2wO6C1/uXtecOae7vplX007+4MV/5O54ly408mz3qRE6mblwIu1SKUSX+vpBVH5dTYXTTu7z/V3vs0H9sUDURm9yWxBHHBse9mE8IgnjgaA5t2FXGpS91ZtbwFe95ZgutxlL2QdcJdLF+Wnn0X2Td29wNIAe0P3W3Yb4pK/vI5eZ2Oxo+BOJW+XYMJo2xbeWo+Fc8ibM548x8XnJ/INpt3KEz5O59KcOj+nKRwDb5N0NivxtjU667yvgKPty+R3Ma0IOfdKhTGKOXWZzlBZDIRrvbU2Fk7TM7ELwM/wV7hy9YxdGS3f3NR1mv6aExFzax7mdpnbk5a6zF3zsnPc/KOWY3ATxdcQs9vbYoeUpbqr89mNH7vxAvirCEs2a8e3EcpQdvHwRyDtpKkVAMZA3mRlnaPZ292SrUQc4aPUzT6i0M84kU64EqfevH1vAO3Jn3pc9uSsfvH48HSShtEt9fiQYp8lST6h2C1uogxxbrBK5wwsmhOTB8G/eN5ut+kwmUJ+2EIF6mJJi3Ihs0a179ny1Q08P3bb9xbXj++H5tYNPmZ80QA60YW5dfPb4qnxz55jGOC96YJDN5ov9wb35uZtM9sJFvXyxJI6dFX+KGgC/DZbNwIat92m0lx99mJ1obzwcUvqxAbeCryYyBsHFnOPOQegLijhwmmrxm8hPxp3sRQbeEvw58GSNJG8k2Y/YbZhJ53ofsp364gfYUmd2MBbxHOz28ipZNfBOJcncGHVFTHoI1lSB8acOIbN5uf1+fVnuznudhqaRTgFSKcVOHCLeN+RFZU3aDRpS13E34JT6B1b4CpNFKJREg1qu3sxpL7CsNEV/mtJHeSMutw7vhovJxK0Y5aXbKU93/65/ZX9M3mT+cU6/Ai+h7qUkoxxDVu3nQwZCthRhzmjJEcp3dX5EgyFlOULiwzO2nJqvoY6jMyTTVWNAmF71DsP7c/P93EvlUyra9EH1Bn6mdghLXlF0aGDb8KgKxE0wH2nxFFnGgFhN4LkFdKt8L+Cy86LhMJmJ1biyY9EmZpGr2DuiNrOP+vz3ajW+91x++nPr9vzp+ZDr4EuTDI04lSYUidc+qY6k/yzSAIyYolNOVMwd/qlmH8TCcsq2mUVADKLxNwZR3B/BUn+mzhqhtQJ5s4w9v5b+GTUGdZqorkjyQadSPLvI/E3iUtvSp1wubAs5/3zSKw9cQEM94AguoOd8PzzkT+FxNUmfqlhWYAQ3eUf3P0xJAEwyQ8YUgfn23ILUH4aEyY0Zn0C8Xzf5OipIwrP7Mbc7K3XR4jE07C5qE28sVzvrNZfR4eZYrPTXOLlU7m9Dn4OfeZGmZXvQ/wDxU/H6aqQepYJ+dmIOjhWWz9mY05GB+GLkTWH+Kd/zMacJJKh0tqEODH+UfTT+nEkcgNJEZMKTUeIf+SN3o4AnLUyKfLD897EIOieAP3riPN1UNhjctLQFwzCccauJZh88qNNe05C3QEbWd+LNksbmQTn4gWu37FF8iV4YOGrSYAHzXlJhPD8kwTkosc4yyBIQJU5PuJ0X4wLKzcakypEZapP4Pw0hpzO0+dMbF9BxE730PwPgGMt/Y5wsO1aP+bgLkFcbQL7U9oGD8WO7GxPfmzsxRgzg6eda0db/nTMLnSCDjMJ2o1koNFI9ZhzKgSXnNbTZUwope4fPWOSVDk2btFjTWw7QsrfvqY45bvwwLhLL7WCS0eyDlp9mX4OdZb006tZwfY+k2NOOlD8ZjZBJ3NETy0euY8JeODUurzDEw96s+PkyL0wQJ3Ptxb1OQqRuMG/sXTAYrB4+TbPiejxkft/QupKkNjCI3+tHPI8VgZPkmE/VIRjBLLDiJvDSwV5jueypgfCZTdHDlJvhbWwcy9rFxw3WnMl/pCCNujL9IO4Eu1y7S3i2644rhetZ/y5EVi5ny0w0gdREWwnZzRdBaEXHxX0gnC92Ykn6qCk92hztGkAp/F5ycF8OZvNlrvMWZ8q1g3+E0KX4CVLngK0pvU4CwHkgCEX5cz7tFrwuEODFLB+fJsTaZ/26Cmm7b/Dlglo9X9TznKnfe4009FuiyjBzm60M/7VVVc4pHL0rrME/NGUp+5FfVAtVQf1i944fQjywCMwP4ScoykMOb2tjhz1Qtqa/yxtMdLdWASc9452K0sTA+nRm1gSe/+S+Vai2smcvWl3tXp2/yu46kyaT9fn9+/NyWPjGwz3/8PJAqs66mmYAAAAAElFTkSuQmCC;" parent="1" vertex="1">
          <mxGeometry x="305.61" y="270" width="38.78" height="40" as="geometry" />
        </mxCell>
        <mxCell id="nKZgPrIdQHSc6nTD6ok2-3" value="" style="shape=datastore;whiteSpace=wrap;html=1;" parent="1" vertex="1">
          <mxGeometry x="220" y="260" width="40" height="40" as="geometry" />
        </mxCell>
        <mxCell id="nKZgPrIdQHSc6nTD6ok2-5" value="Parquet Files" style="rounded=0;whiteSpace=wrap;html=1;verticalAlign=top;" parent="1" vertex="1">
          <mxGeometry x="280" y="360" width="90" height="80" as="geometry" />
        </mxCell>
        <mxCell id="nKZgPrIdQHSc6nTD6ok2-6" value="" style="shape=image;verticalLabelPosition=bottom;labelBackgroundColor=default;verticalAlign=top;aspect=fixed;imageAspect=0;image=data:image/png,iVBORw0KGgoAAAANSUhEUgAAAOEAAADhCAMAAAAJbSJIAAAA9lBMVEUAAAD/8QAAAAP/8AAAAAUDAAAAAgD+8wBeWQgAAAj47hD/8wDm2y/98APc1kMABQD/7QD/+CD89QAGCAkAAA1GRgsAAwcoIgD/9yooJwc5NwU0MwQyMAcJAwkzLQBuagmknyu1ryPOyCbq5Tb9+DiDfhgqKQB3dRuwqR/37yb//Q718h/t6TK5sx4JCwFvbha+vy41KwyglTTg2heuoiUmGQO2qjvs9RuytioIAxSPiR4VCgZDOQnIwixvcxbx5y5TSw5dVxYwJQ9zahwXEACTkBxIQg3LxCV4bR6Ffiy1sTfOwBRQURfU1kBeXC4REwBuYiDV1za3PVDNAAAIS0lEQVR4nO2cC1vTSBSGJ5NJhhDGJFOsVekuF1FbquKCu+uFLXjd+y7//8/sdyaFbU21sSY0xPM+ggX6QL7MmXObmQjBMAzDMAzDMAzDMAzDMAzDMAzDMAzDMAzDMAzDMAzDMAzDMAzDMAzDMA1FTv6Tq72MGpAqUkKEAp/DUKgoEk5mGCYhfhQp/DAIpJLurfQ6WPUVfyGKrh3SLggT+qqjQIgX9C8RJDB/Sy712oFxoaEiudDjNAuSOPlxKGSUCwuF+2a0uaILXRYyRidBXqhS/dt37m5t3b3dJ5uFGU9mZ/424Sz52kDTSnZlEpJKfP3d99s7u3v37vV6vXtgb3dne38rf2uXlCXiutlpJGmidWCcQtx/8HBjkFmrtfZ8P/X9WFtrh/Zg9OjBHdyIzX7wmG6FWvxrG8QmudAuBuf+k8PRcGg9CHOkKb2K8eEZbbPR4ZNbIur34X6UulZWqvIg8PSHIxo840GXN9EYx7Hn+Z7nxSY11vY2jreE7EuEkes1iCGm1bMfxxZW6Rmo05BlDNknjBUvjIbAOPa18e1PP98VEcb8OsxESfGg3+8HmH/PtjOo8QrEhe9o2zt+Cm+ThEkS9AM3+o0FHrErHqvnQuyPMFyx8YsSi5qNyQYvXsoojFQoIxku/jsrg5Iv2UmEeHVyYG1Ms68EcDxwOrun8E9KdSk/WLWOT9PvYzp1hPhlnOnYT+FgSilMTYoJOn6BW9TtNFgeQB5Gyeh2hshH+owpo9DgvXCyerjzUij41Oh5c31OmHQi8fRDZuiKPd8YXfQrRbSX3wg9PH8vEDZUgxXCF4pXGwgRsUeBz8zzpUXgaRA/8NkO985kvyM6q9bxabqheL9nEeAh0Is15mIJgQiZJA8atR6OTyVyuFXrmENuVvK5OIVAa4xLYdzFl1CY5zl4fxobO7oZbTZQIYIYisFuqF6N4WNia8sY51y1nh2diTAQYVc1quyXEBjIRLy+kWkEQV3KhRZxA7m+dxO1I+XtAZUoDYGytRBeZhd5NizUX1KhptpqfXj+EpkRgkYgNpuiMHAKA8RBYymt9kqlMsUhRBrup1r3TvAbu3TbmqNQINIL8aZHRZ+22nmZZRSibkSql2b7mNmu07FqZRdIpxBeBnPQUClfKlmbJxGjjyI5HpyKZtX8eafpxLoil/xFuYx7jsTYBQ9f776F92pQ60ZKGOp+ZnzKYXCB5dLRIi4PQuT30+wdmX6T2hooWkfwoqiYaBS1LZOOFkFyQx0AGIEe3YVpzDZQVzqiKFqPLc2+ibLlBP4PhD4S/WjzspKSEaKHCuaKdJmBmjLpOm5FIm6NYozAVwq7xGgzeA8r/UihQokcFKDWM6aJqtkzbWfwLksaZxHMxuGOiMIphaGEu1YuefqITapJg3rXdsLo6UjT9KtIIFyOtve21NTSjhLUv5nbo4Jsskvqste2iJfId9Q2rE6hR53U30Uw3dHYjFQEobIArem4BnSdEt9uUE0YLxkkipA/Hu69nvoLyFGRjs+1xcm3umTUtUl8M9BUxi6ZysxRiImoew9m/gaC459/nW/M48bhi7NAqCSpb7H5UYZsa9mEew7wpZ5vP8xUT3i5dmCRVBQx2h7s/vZyZk22YkaWbvty+fY8cNX4XeM7M/WhUmsHyHsLaOrVaZ0d/e2WXSsXR8sNvw6sLtn9LQemYUwlxlQYp2b/2rr/idaWW+npHVOmF1Q6jjTHofC4t3TFNP96c4X2cOZP5Qo/E3LN4OQf0ZdBlavlgdtHIY5Q2ceYh1X5UlKIAkXvzSqUCxTCUncDDHul7VbZpcX4zAnUy7Zn5kh0H3p0OqNw0Riue6l9CJdaaUmiVKcjzqzJ26Ol+r+lFKJQhPfo/TalMFisMEXZ9UQklTYjVTcMxA9IaNJqFdKn2GTHUwoXj6HGZejz15++2i9H5gp/165t7Sr0aoDR+xQy/phRuHAeUgekty8qtFIlXCZ1on1nVhVWT9SSQrU/nlG4aAzjWJtUb1TZv4JClDRvjzQtOXgVBkTjygsT975IoW+s9vXgrDqBecGibo0rG7uPyR7LKMg3Ey1WSOt5ELn+olKFIeLP7V5dAr3sNk2qkgpptRxpq3lUscJA1KnwJrxZeKFwkadBSgeF8UblCrdqVRhMKqIyY4j832hvvPC6SyMnCrMrUbg44juFxq9QoRtDUbOVfukYzoSYShQ2bR4ar+p52CxfmsKXPqxUIeaifNageJgaO52ufzVNy2m0NWk8vlOtwiblpW71WX+ocuW4YbWFoZXHg7PoeWUCRcPqQ4MbPTwU1S7RNKnGj02cxqMtkVTabGtSn4Zu8eCNkI+rbEQ1rNdmD97RomOVe1Sa1i99R7tUwko9zVX3vL3iVJ/c2Ti2g39F0umHYR17xa5i3ULRuoXnjm1MlOUv3CkVY7PBjsgPQdRC/WtPAfWX1n6y2hZWnizIjrZfiTo3+de/fugU/vnXjTmcnxzvr92qeRPcFawBB5H6vATZrVHgFazjk0IVSZhtcR1fuT1wtR4quqq9GKG4PGxy+RN35FZdnretj9r309DGq1C6M8SzuEOqtW9kvII9URTmYKZ05HYWZ5y1n4a/on1t889g5hrd1q86JVayN9H/mr2J9epr/f7Sb2CPcOv3ebd/r377z1u0/8zMt3DuqfVn19p//vCCFp8hndD+c8DtP8vd/vP47X+mQvufi9H+Z5t8A8+nuaStzxi6pP3PiWr/s77a/7y29j9zT7T+uYlEu599+Q08v7T1z6C9pL3PEWYYhmEYhmEYhmEYhmEYhmEYhmEYhmEYhmEYhmEYhmEYhmEYhmEYhmGYj/gPEOjLTkH8gHoAAAAASUVORK5CYII=;" parent="1" vertex="1">
          <mxGeometry x="304.39" y="390" width="40" height="40" as="geometry" />
        </mxCell>
        <mxCell id="nKZgPrIdQHSc6nTD6ok2-7" value="" style="shape=datastore;whiteSpace=wrap;html=1;" parent="1" vertex="1">
          <mxGeometry x="220" y="380" width="40" height="40" as="geometry" />
        </mxCell>
        <mxCell id="nKZgPrIdQHSc6nTD6ok2-9" value="" style="endArrow=block;startArrow=none;html=1;rounded=0;startFill=0;exitX=0.5;exitY=1;exitDx=0;exitDy=0;entryX=0.5;entryY=0;entryDx=0;entryDy=0;endFill=1;" parent="1" edge="1" target="nKZgPrIdQHSc6nTD6ok2-5" source="nKZgPrIdQHSc6nTD6ok2-1">
          <mxGeometry width="50" height="50" relative="1" as="geometry">
            <mxPoint x="470" y="330" as="sourcePoint" />
            <mxPoint x="470" y="390" as="targetPoint" />
          </mxGeometry>
        </mxCell>
        <mxCell id="nKZgPrIdQHSc6nTD6ok2-10" value="Dump" style="text;html=1;align=center;verticalAlign=middle;resizable=0;points=[];autosize=1;strokeColor=none;fillColor=none;" parent="1" vertex="1">
          <mxGeometry x="268" y="326" width="60" height="30" as="geometry" />
        </mxCell>
        <mxCell id="nKZgPrIdQHSc6nTD6ok2-14" style="edgeStyle=orthogonalEdgeStyle;rounded=0;orthogonalLoop=1;jettySize=auto;html=1;exitX=0;exitY=0.5;exitDx=0;exitDy=0;entryX=1;entryY=0.5;entryDx=0;entryDy=0;endArrow=block;endFill=1;" parent="1" source="nKZgPrIdQHSc6nTD6ok2-11" target="nKZgPrIdQHSc6nTD6ok2-1" edge="1">
          <mxGeometry relative="1" as="geometry" />
        </mxCell>
        <mxCell id="nKZgPrIdQHSc6nTD6ok2-11" value="Cloudflare Radar" style="rounded=0;whiteSpace=wrap;html=1;fontSize=10;" parent="1" vertex="1">
          <mxGeometry x="460" y="202" width="100" height="40" as="geometry" />
        </mxCell>
        <mxCell id="nKZgPrIdQHSc6nTD6ok2-15" style="edgeStyle=orthogonalEdgeStyle;rounded=0;orthogonalLoop=1;jettySize=auto;html=1;exitX=0;exitY=0.5;exitDx=0;exitDy=0;entryX=1;entryY=0.5;entryDx=0;entryDy=0;endArrow=block;endFill=1;" parent="1" source="nKZgPrIdQHSc6nTD6ok2-12" target="nKZgPrIdQHSc6nTD6ok2-1" edge="1">
          <mxGeometry relative="1" as="geometry" />
        </mxCell>
        <mxCell id="nKZgPrIdQHSc6nTD6ok2-12" value="&lt;div style=&quot;font-size: 10px;&quot;&gt;OONI&lt;/div&gt;" style="rounded=0;whiteSpace=wrap;html=1;fontSize=10;" parent="1" vertex="1">
          <mxGeometry x="460" y="246" width="100" height="40" as="geometry" />
        </mxCell>
        <mxCell id="nKZgPrIdQHSc6nTD6ok2-16" style="edgeStyle=orthogonalEdgeStyle;rounded=0;orthogonalLoop=1;jettySize=auto;html=1;exitX=0;exitY=0.5;exitDx=0;exitDy=0;entryX=1;entryY=0.5;entryDx=0;entryDy=0;endArrow=block;endFill=1;" parent="1" source="nKZgPrIdQHSc6nTD6ok2-13" target="nKZgPrIdQHSc6nTD6ok2-1" edge="1">
          <mxGeometry relative="1" as="geometry" />
        </mxCell>
        <mxCell id="nKZgPrIdQHSc6nTD6ok2-13" value="&lt;div style=&quot;font-size: 10px;&quot;&gt;N2YO&lt;/div&gt;" style="rounded=0;whiteSpace=wrap;html=1;fontSize=10;" parent="1" vertex="1">
          <mxGeometry x="460" y="290" width="100" height="40" as="geometry" />
        </mxCell>
        <mxCell id="nKZgPrIdQHSc6nTD6ok2-17" value="Write-Only" style="text;html=1;align=center;verticalAlign=middle;resizable=0;points=[];autosize=1;strokeColor=none;fillColor=none;" parent="1" vertex="1">
          <mxGeometry x="373.5" y="310" width="80" height="30" as="geometry" />
        </mxCell>
        <mxCell id="nKZgPrIdQHSc6nTD6ok2-21" value="Redundant&lt;div&gt;Storage&lt;/div&gt;" style="text;html=1;align=center;verticalAlign=middle;resizable=0;points=[];autosize=1;strokeColor=#b85450;fillColor=#f8cecc;" parent="1" vertex="1">
          <mxGeometry x="160" y="320" width="80" height="40" as="geometry" />
        </mxCell>
        <mxCell id="nKZgPrIdQHSc6nTD6ok2-22" value="" style="endArrow=classic;html=1;rounded=0;strokeColor=#FF0000;entryX=0.15;entryY=0.95;entryDx=0;entryDy=0;entryPerimeter=0;" parent="1" edge="1" target="nKZgPrIdQHSc6nTD6ok2-3" source="nKZgPrIdQHSc6nTD6ok2-21">
          <mxGeometry width="50" height="50" relative="1" as="geometry">
            <mxPoint x="190" y="310" as="sourcePoint" />
            <mxPoint x="210" y="290" as="targetPoint" />
          </mxGeometry>
        </mxCell>
        <mxCell id="nKZgPrIdQHSc6nTD6ok2-23" value="" style="endArrow=classic;html=1;rounded=0;strokeColor=#FF0000;" parent="1" edge="1" target="nKZgPrIdQHSc6nTD6ok2-7" source="nKZgPrIdQHSc6nTD6ok2-21">
          <mxGeometry width="50" height="50" relative="1" as="geometry">
            <mxPoint x="130" y="350" as="sourcePoint" />
            <mxPoint x="160" y="390" as="targetPoint" />
          </mxGeometry>
        </mxCell>
        <mxCell id="nKZgPrIdQHSc6nTD6ok2-25" value="Good for Querying" style="text;html=1;align=center;verticalAlign=middle;whiteSpace=wrap;rounded=0;fontColor=#CC0000;" parent="1" vertex="1">
          <mxGeometry x="270" y="439.12" width="60" height="30" as="geometry" />
        </mxCell>
        <mxCell id="nKZgPrIdQHSc6nTD6ok2-27" value="Good for Inserts" style="text;html=1;align=center;verticalAlign=middle;whiteSpace=wrap;rounded=0;fontColor=#CC0000;" parent="1" vertex="1">
          <mxGeometry x="270" y="205" width="60" height="30" as="geometry" />
        </mxCell>
        <mxCell id="nKZgPrIdQHSc6nTD6ok2-28" value="Bad at Querying" style="text;html=1;align=center;verticalAlign=middle;whiteSpace=wrap;rounded=0;fontColor=#CC0000;" parent="1" vertex="1">
          <mxGeometry x="325" y="205" width="60" height="30" as="geometry" />
        </mxCell>
        <mxCell id="nKZgPrIdQHSc6nTD6ok2-29" value="Bad at Inserts" style="text;html=1;align=center;verticalAlign=middle;whiteSpace=wrap;rounded=0;fontColor=#CC0000;" parent="1" vertex="1">
          <mxGeometry x="325" y="440" width="60" height="30" as="geometry" />
        </mxCell>
        <mxCell id="nKZgPrIdQHSc6nTD6ok2-39" style="edgeStyle=orthogonalEdgeStyle;rounded=0;orthogonalLoop=1;jettySize=auto;html=1;exitX=0;exitY=0.5;exitDx=0;exitDy=0;entryX=1;entryY=0.5;entryDx=0;entryDy=0;endArrow=block;endFill=1;" parent="1" source="nKZgPrIdQHSc6nTD6ok2-38" target="nKZgPrIdQHSc6nTD6ok2-1" edge="1">
          <mxGeometry relative="1" as="geometry" />
        </mxCell>
        <mxCell id="nKZgPrIdQHSc6nTD6ok2-38" value="RIPE Atlas" style="rounded=0;whiteSpace=wrap;html=1;fontSize=10;" parent="1" vertex="1">
          <mxGeometry x="460" y="158" width="100" height="40" as="geometry" />
        </mxCell>
        <mxCell id="xTSGRM2kvM_ch726OY1U-1" value="" style="edgeStyle=orthogonalEdgeStyle;rounded=0;orthogonalLoop=1;jettySize=auto;html=1;exitX=1;exitY=0.5;exitDx=0;exitDy=0;endArrow=block;endFill=1;" edge="1" parent="1" source="nKZgPrIdQHSc6nTD6ok2-5">
          <mxGeometry relative="1" as="geometry">
            <mxPoint x="420" y="400" as="targetPoint" />
            <mxPoint x="370" y="400" as="sourcePoint" />
          </mxGeometry>
        </mxCell>
        <mxCell id="nKZgPrIdQHSc6nTD6ok2-18" value="" style="shape=image;verticalLabelPosition=bottom;labelBackgroundColor=default;verticalAlign=top;aspect=fixed;imageAspect=0;image=data:image/png,iVBORw0KGgoAAAANSUhEUgAAANAAAADyCAMAAAALHrt7AAAAw1BMVEX////zdyZOTk6enp52dndhYmJCQkI8PDzybABFRUXyagBKSkq7u7vo6OjzdiNBQUHx8fGampqUlJTm5uY5OTm0tLTzcxvzcRTJycn39/fW1tbycA7v7+/FxcVaWlppaWr+9O+mpqb849f97eX2oXX1lmL70r/R0dF8fHz0gTr1kFj6x6/5v6T71sV5eXn4tZT0iUyIiIj3pXv839H96d/5vJ/3rIf0hEL1lF/71cMrKyv2oXb4sY7zfC/2m2vyYQAlJSWYM4IVAAAQiElEQVR4nO1dCXequhZuqWVUPFUElapYp1q1dajae271vv//q14GVIYAAQJoV7+1zlmtDSEfe8jOjuzc3f3iF78goTVp9B8eGs3nogfCBu1ar1eC6PVeO0UPJj0qK8wGo1dqFz2glGg66SBK/aKHlAplLx/A6KHoQaVAx8/npmVUIfEBjG7WjlZEPgBFDywh2mQBARHdqPeuBQmo9F700BKhFSQgIKJK0YNLgkkIoZvUuUYgn1LpJj13P4RQrejBJcHDL6Erx4+zIV+gfcFternnEEL1ogeXCIGhXCHB3GAznn/s/h29LSHeRsPdx3y8GcTpIlDneuWsRk1C62W2+1JlUTRNQwdQIeAPhmmKomy+7WYbi66r9AJqVep/ktHAGMzWU8DE0NX7QOi6KcqH4ewzuruAcLs3oWTTKHFcl+vWklmcNRvqshlGxQEVsDKOsygN7BNXrJRr8AbXfUTocqtWXDaf2z01mYusTPnw8RLa7xMhp7CiG9LKpoModWOF54PtQTZikjlJyhDV7zDl88mo9xSfD6REb0qzZVI2J07ydG4Fdj/puSjRTqll7tFNiNKRDHaimYaNzckUh8Gq1yidKPV6DVpjcMsHMqJ5Eps3WU/NBkOXl+PA+7Qbtdf311qDPttT9hF67EVeNJ6KrOhAqOL9jHrAUXj18XnkIvwCoJNe1zKjxPkJdZthF2z2zOlgSodgxYuBPyRCjeD2gy85CzqY0jJ8ZsqC0I6ZKyBSkodWakYkQkFubqwbGdKB0MXUptQjOAVyRGeNMtM2B8RlrHWGH32/234kNhwz9dTB0OV5KkIVn86RTego50IHQnyz0jCq+UREaPSi5yMeDN38Jw0jrwURooxtHtbjgCrvUhB67jplxBFc3EjMlQ6EuYy9MLug9X5m1O365WMdsnbWJOg6xUI9EM0S1wXgHgn+YJNJpBMNVU4VCj03G40Oaf6Z5Ww+DsjbNIwCsM3PW/shpnENZOzydwcuRkfGfNbF8gHO7ospn2F8PqquGyhPiiDLsv2TaRqGHjfZBWC8seRjxiFioGzv/mv9vZ2NF5uXz4GFMfh82SzGs/n3erQ35KjsaoaMKPUNUIFEhh8zqnz8YDPb/rs3ZZE2OWmMGPH5juYDs7riYThfxI/4rcUc5cIpWJlDJnzmEf4aktGP802KCAVM2vOjHk2Kifceh/KBZNaR+XY6DMZrVTZDg/mUKySIl2A+qi6KXzQ7IjEwmH2JYoig5FTLCQArMMkLNGSdtncyFmsjeE0sptSGPblnIJv1hs3widiszQBOqpqq4yFpvaCa8nHBaOTBWBxlonboaaajGcGAdHE6s1iNOhStGTFxLn4k7nHg46Ma8jBLVfPiZUjYd5ITj+Dg6Us1zQ+L4XBpYH2YXs1T9YR97QwPHTX9LJAEs3vPUllPFgNtZDcdhjs3cTE7uCklSxOrzj5MvTg6EDPVpXiiFb8Lp8IZYhaL+niYm44BJVA6R8ijyutUgScrOHdw4ieCpicJq+KSbbiWHIO3synF9nTz0xpIN4s1HjfGxklIxne8K098xJGVycgSY3jKDsqxolTbI+gik+1bpljYKyY9ThrIjnlSbs9kBXvHIE4EdNSRcyveV5MxR2qnLqkv+JSRN2CwtZ4RPlX4xEXqNcwINDf2VoYjSo03E4hoT9kYCkhkkzHKDjuZXkTAguTki6i8ABaflFYEXJx8TZNpEP6RVZnKzHdG6lxRPngR6WJUUc4+A8IGLyJNuDD7L8+kQTp8yhQRnXEb+obx8l9kk0UxeYOk+CfSfd2OvmHc2nh/8Ytf/OIXV4wfUoQIo90vaZTvOd0EOEFSpJt8GToAXY7jfgldM34JXTuulVAr6dYYA0J/6p6bP9cgLt8/b3WaAJ5vPHceIC6/t0GTDp4QK/0er2mCUmo4X4Ct9xsAvlfrK+UOALpZs1wudyAhZdXsdM4fO+7Rf+8qSrfU9303vgyBfmq+89pfz/vhFU2SJO1y6z9/q9Wq5vlGek0AjQTH7xpoA18qeH7VJIWDUHjNWS5E4yWJ/+t9yfdJ43n+LxphSQA/4iurCJrrxehOV8AdK5LgfSlQqvK8Bof+KIAmVQ/higCu4h2E0O9eQhLUjcvvfQlfU9YwGwxJuvT9hK7wflMftla66Md355XoasfzeH4UEBkFc3JzvXsEn1WBCAX0V3aEGnd9DY2Er/L26LSz+CvoT113N21H3yXJHi4aNwC/crSDf+GF3moFBAVv4Xq3tgflcvcs4KuZEGpI8PE3waAVofvUaTZW6L6A0dn44F05oe7vRsBG/FR6f39FjLqlHsLZRusaUjX8svRzDf7GO2WECcH/FV4QfDaUiBAPjRmy6trdtdB9OYU7NelUPWoEAHtRXj0f+LxcC37KX8qUtasu2QPhAioSlLbQ61R8HjYRoTKPBs9VHQ+uiRjx5+eMRMY7e5nArgXnA+VJhKB1SU6JIIl13Q24V6ClxPoXyQmBZi4BdJBSa6cn9gCvqTa9vSjOS0iE2lCR3e/N9UE74dIT0lTwj1woIQUhxfMa/EpxXorcgkvBkBK6qnCQCEHb0DzzoOTqCZuetw0DQt4u/yAK54eL3IJ2UfEJsgXXm/MEQlC/FG9NB3j/qpuQFFQkK4UN+UpJIBFpJ01oVt09wb96hEogdJriXID3E87uGcYXXgfKgpDvtpjCxWwkl8CQxlXd1xAIQbkK3gIIsOPL7RSfu2FDyP+M0LWXASK3cG6F2AruCwiEYBfVeqXuRAXNe+d2JPtlQsgfY/Mu5UZuQTrlQKDGeRXfT6iOXGVVcENy9cuFmRBbQo/QTC5TSElxXIYE5AlT/ISQ5yDi0i/n85aZEYIMHP4V29Tk8rMntiMQ6lwXoZ5bQji6xgSRxnmjbz8hPCEIBGjnB5UjIbQCdRCCPtieigSnRw8m1EAfVZ79qJwvTkDI+yhpCVU9A3zWTk8HqpIrbAgjVPW2cyMeoZbgu0kQIV8s9ezpyzYq6GHh7F71laMJsCEhPN2dgJDiqRO2UkiEfPMQHo3zY+QKNDA+zd1BICG0BqyGF3+KRwjdxBPtoi6cc3NApICjU9dHdrwKiRHGEDCx+nUzDaFHxWcf6LH5YznvZI2DU7dwoVsAQR/UWc1f0QnZnHv3AUWehKbJCSF7cT99NEE6pWY7V88Ca4VCHffcidyCcOePSxEI6o1WgcGBTQJC9tTmaNJAn/gJcZxLjhON8ysrXn/CqI5kGJz3VgBdpKVhFXRjEmrhVM7lufVxeoVASOk6GGG91LxpQfzEiS7BNjqPTNvo/kIIo5iEsOZwkl3ztd2rAi5EQgqnSOfHjlNavL+MIpYCeQRlrA1u/19DH0quaiLtlcN3hhOq+wghtUcJqtfVqwJTZApi7QjE7AUeVKRuv9lud2oSfgqEGjp9O8FFnFswIWHV7z89nqVdkuz7w67bk3K/xAuCY4RxCd01NPup4lSgAmYWwa3rdqTwiObbqlDl8aBJfLDv4xRy9fw+ZqTAdPSFccmOUCWUI+Ylz8KDgpBnLng4MUKXwgJ6yBB8hO56ztjYm7E9D08heMQTutLpcueE3HelmLF60xJqe+MviI5UtVPwEk7BoyS7n9BdQ+DPDR8DCinCNLfP+Z3xao9dcbmTeum0CYD+xmtdxwgFmNoP3DufeFIZpyGXJE3Qqr0+Nli4geFocwlOWw3UUOo9BFaxhUMKCWbaK7haUEp9t2uo9x/tZUO1u2q4Op8AeDd8PGMj3q/1HFjy1B1tt0I3vNC8poQ0CAbMLFTiljDuuzIZlAhaPpCABBRSJZE1UOwUsQDxIQahB1/+N2Og+1FWFT6DnhCKh4QcC83jbFloIVACqAmhSSHYxWUA7BfjXkVLqI7mqaC0egaooNA2vkZQEiqjCbqa2xcRKk9oLzN88UEEFaFKCa8LczoIYNLjBDsIjF+snoJQe4VDAMWbXMwKbTte46NqHZNAQcheRRHj1UyAEwCSkOhsOQpCOOsuhKc7mAJ+GaTbT/YtncZfEGT9L/xaKH0pz5NOGuVJ4pMeWig3G96mpnE5Bjw5oH6zh/BdI6yiBxATVlQDxsW7soYV/b56kvolxcGwIpvs9Og2V4MpRbXQgXywMh8IIyypaip8GfdWxgNhhL0xpWm2EXWdTY3CbGFNaQv171VVvN7iECcMVJ22eN5YTFsROgfAWtkm7UvEsAwbzVvWBQLWylYN2tZjWJbFZFmblzVQbVyTvggMqiOlq9dqSNYelh2iF9Dd3UK8v+I6OPZBGrFqXC1xdSNxaWU1quSwD9JQD3Eu+rSLsTE4koUxFqeDNOir+iD8e6oSlvpIFqZoHU+1vuKWO7XOJan1KyqJM7vUPY1XvAxde662Z95fR1WPF8cRW2b8aXJ5qR/I5giqlLCOjnMn1Pv4HbjK0OrysVhTstxHbCUqRrt1Vd7X5WFxlKxv0VVE1lgn6sZTmhpQKibf4KWTSOFQR97i+7r8lX+RlsFa9tbIpiuJRYC/XD2sTc10uFFYEE6qTFFFllA/XDXNXV7GZG3vCQW3U1UQnxJqkquGvMxDTOMR8YxXVU9TFtdnRicxycdsl7SbtRhQtD6xAWEsgk5J0E3xOM6ohPAm5FiB1LX85sHnjABOb3PW9mTNjmbIwQ9m+rM51mEn2+imfL8eW+l5YCy+p+FHcxgsTiH6Cj9aTYUHYa9T5/gH4++9LEac9KzTFgINxzLybEJ0uM3b9zgZq8FiOzJEM/rYaj3WIjUEU6rTFtFBStPhx/jFouzX+hxv10sTCIbqBCJVpe04Cq0D9fmR6HwoWZyO1h+zfzafFmEI1mCzmG13x70uxzojSqXYOqGFRc/oxEtH53fBo7v0w3S/hNhPD8De0GFeJjzGK945XqrJ0qHGZuQciRPJezEYTxB0dpQZdGb2c8ayiIMxz3ymzPnc3R2LO9vPpK8VHgffRZ0mmVmt7ILO+8wwMfhi5O8a1Jg533iwljEOYWQC45Dx+vg7X7WTsy81v8nxHO2cDtI45iWk3LanxuHnIzJCrntTw8yFpIpfVn58gCUdsnV3hp77FyXmYnbBXTGbbK2dP0vLiM7QKoAPgDXMgJIufxX4pcoBa0qATsGbhYMdMQOdCPCkyiv4ymtrqwafBxsDupj/SZVBWIzIZ6fGEs5bLo660p5MJu3ot1as+T656qmGeNjmsek0aTzZqPUnkTsNg21EYpoMmEn+yMNyWp3a08MFT7Vy9OaJNRuJlGlQTMYQxS/mGxhktJ+cdDClgLfS3XiZj3Q5MiOKMqzm2za3TeiGlw6iRPvSzGD8MVJF0UQJUjcRwATmwPXEqf1k6JP4AEZx3nJsfY7n38e3gwlzv6L93+HtuJvTp/NZIYAPQLL3Ni0MtoOMAaK+xdS6a0I7mA9gROUZrgthfACjqzg9Nw46EYTyfN2RCcL5AEZFDzAmQi0IEbqxdx4bEXweHm7M0UUJ6NZ07pmCUOLXkotAnYJQfmUrGCDSJ9yaV5j8NEI/TkI/zoZ+nJf7cfPQz4sUflwsd1f7WRoXvR6KWw6seEQQKnp48RGeU7g1C4L4aVmfkLxcrEzjNYFF5vS6kC63fY2Y1Hy7DzfpDy5old37Q0+dm8swetGa9E87eE8UO3i3gUp70qTZY/1FZvg/XddyAWqutWgAAAAASUVORK5CYII=;" parent="1" vertex="1">
          <mxGeometry x="430" y="360" width="68" height="79.12" as="geometry" />
        </mxCell>
      </root>
    </mxGraphModel>
  </diagram>
</mxfile>
